# xmcd
#
# Track frame offsets: 
#        150
#        19014
#        35902
#        52514
#        72266
#        84614
#        103347
#        122750
#        141254
#        158337
#
# Disc length: 2286 seconds
#
# Revision: 0
# Processed by: cddbd v1.5.2PL0 Copyright (c) Steve Scherf et al.
# Submitted via: ExactAudioCopyFreeDBPlugin 1.0
#
DISCID=7f08ec0a
DTITLE=Tyrone Wells - Metal and Wood
DYEAR=1900
DGENRE=
TTITLE0=Running Around In My Dreams
TTITLE1=Metal and Wood
TTITLE2=And The Birds Sing
TTITLE3=All I'm Thinking Of
TTITLE4=Happy As The Sun
TTITLE5=Give Me One Reason (feat. Jason Reeves)
TTITLE6=Let Go
TTITLE7=Time Of Our Lives
TTITLE8=Use Somebody (Bonus Track)
TTITLE9=Pull Me Through (Bonus Track)
EXTD=
EXTT0=
EXTT1=
EXTT2=
EXTT3=
EXTT4=
EXTT5=
EXTT6=
EXTT7=
EXTT8=
EXTT9=
PLAYORDER=
